<svg width="892" height="15" viewBox="0 0 892 15" fill="none" xmlns="http://www.w3.org/2000/svg">
<path fill-rule="evenodd" clip-rule="evenodd" d="M1 7.5C1 3.9159 3.91567 1 7.49987 1C11.0841 1 14 3.9159 14 7.5C14 11.0841 11.0841 14 7.49987 14C3.91567 14 1 11.0841 1 7.5ZM1.85247 7.5C1.85247 10.614 4.38585 13.1475 7.49987 13.1475C10.6139 13.1475 13.1475 10.614 13.1474 7.5C13.1474 4.38598 10.6139 1.85251 7.49987 1.85251C4.38582 1.85251 1.85247 4.38595 1.85247 7.5Z" fill="#53B43B"/>
<path d="M13.1474 7.5H12.8974V7.5L13.1474 7.5ZM7.49987 0.75C3.77759 0.75 0.75 3.77784 0.75 7.5H1.25C1.25 4.05396 4.05375 1.25 7.49987 1.25V0.75ZM14.25 7.5C14.25 3.77782 11.2221 0.75 7.49987 0.75V1.25C10.946 1.25 13.75 4.05398 13.75 7.5H14.25ZM7.49987 14.25C11.2221 14.25 14.25 11.2222 14.25 7.5H13.75C13.75 10.946 10.946 13.75 7.49987 13.75V14.25ZM0.75 7.5C0.75 11.2222 3.77759 14.25 7.49987 14.25V13.75C4.05375 13.75 1.25 10.946 1.25 7.5H0.75ZM7.49987 12.8975C4.52393 12.8975 2.10247 10.476 2.10247 7.5H1.60247C1.60247 10.7521 4.24777 13.3975 7.49987 13.3975V12.8975ZM12.8974 7.5C12.8975 10.4759 10.4758 12.8975 7.49987 12.8975V13.3975C10.752 13.3975 13.3975 10.7521 13.3974 7.5L12.8974 7.5ZM7.49987 2.10251C10.4759 2.10251 12.8974 4.52405 12.8974 7.5H13.3974C13.3974 4.24791 10.752 1.60251 7.49987 1.60251V2.10251ZM2.10247 7.5C2.10247 4.52401 4.52389 2.10251 7.49987 2.10251V1.60251C4.24774 1.60251 1.60247 4.24788 1.60247 7.5H2.10247Z" fill="#53B43B"/>
<path fill-rule="evenodd" clip-rule="evenodd" d="M586 7.5C586 3.9159 588.916 1 592.5 1C596.084 1 599 3.9159 599 7.5C599 11.0841 596.084 14 592.5 14C588.916 14 586 11.0841 586 7.5ZM586.852 7.5C586.852 10.614 589.386 13.1475 592.5 13.1475C595.614 13.1475 598.147 10.614 598.147 7.5C598.147 4.38598 595.614 1.85251 592.5 1.85251C589.386 1.85251 586.852 4.38595 586.852 7.5Z" fill="#53B43B"/>
<path d="M598.147 7.5H597.897V7.5L598.147 7.5ZM592.5 0.75C588.778 0.75 585.75 3.77784 585.75 7.5H586.25C586.25 4.05396 589.054 1.25 592.5 1.25V0.75ZM599.25 7.5C599.25 3.77782 596.222 0.75 592.5 0.75V1.25C595.946 1.25 598.75 4.05398 598.75 7.5H599.25ZM592.5 14.25C596.222 14.25 599.25 11.2222 599.25 7.5H598.75C598.75 10.946 595.946 13.75 592.5 13.75V14.25ZM585.75 7.5C585.75 11.2222 588.778 14.25 592.5 14.25V13.75C589.054 13.75 586.25 10.946 586.25 7.5H585.75ZM592.5 12.8975C589.524 12.8975 587.102 10.476 587.102 7.5H586.602C586.602 10.7521 589.248 13.3975 592.5 13.3975V12.8975ZM597.897 7.5C597.897 10.4759 595.476 12.8975 592.5 12.8975V13.3975C595.752 13.3975 598.397 10.7521 598.397 7.5L597.897 7.5ZM592.5 2.10251C595.476 2.10251 597.897 4.52405 597.897 7.5H598.397C598.397 4.24791 595.752 1.60251 592.5 1.60251V2.10251ZM587.102 7.5C587.102 4.52401 589.524 2.10251 592.5 2.10251V1.60251C589.248 1.60251 586.602 4.24788 586.602 7.5H587.102Z" fill="#53B43B"/>
<path fill-rule="evenodd" clip-rule="evenodd" d="M878 7.5C878 3.9159 880.916 1 884.5 1C888.084 1 891 3.9159 891 7.5C891 11.0841 888.084 14 884.5 14C880.916 14 878 11.0841 878 7.5ZM878.852 7.5C878.852 10.614 881.386 13.1475 884.5 13.1475C887.614 13.1475 890.147 10.614 890.147 7.5C890.147 4.38598 887.614 1.85251 884.5 1.85251C881.386 1.85251 878.852 4.38595 878.852 7.5Z" fill="#53B43B"/>
<path d="M890.147 7.5H889.897V7.5L890.147 7.5ZM884.5 0.75C880.778 0.75 877.75 3.77784 877.75 7.5H878.25C878.25 4.05396 881.054 1.25 884.5 1.25V0.75ZM891.25 7.5C891.25 3.77782 888.222 0.75 884.5 0.75V1.25C887.946 1.25 890.75 4.05398 890.75 7.5H891.25ZM884.5 14.25C888.222 14.25 891.25 11.2222 891.25 7.5H890.75C890.75 10.946 887.946 13.75 884.5 13.75V14.25ZM877.75 7.5C877.75 11.2222 880.778 14.25 884.5 14.25V13.75C881.054 13.75 878.25 10.946 878.25 7.5H877.75ZM884.5 12.8975C881.524 12.8975 879.102 10.476 879.102 7.5H878.602C878.602 10.7521 881.248 13.3975 884.5 13.3975V12.8975ZM889.897 7.5C889.897 10.4759 887.476 12.8975 884.5 12.8975V13.3975C887.752 13.3975 890.397 10.7521 890.397 7.5L889.897 7.5ZM884.5 2.10251C887.476 2.10251 889.897 4.52405 889.897 7.5H890.397C890.397 4.24791 887.752 1.60251 884.5 1.60251V2.10251ZM879.102 7.5C879.102 4.52401 881.524 2.10251 884.5 2.10251V1.60251C881.248 1.60251 878.602 4.24788 878.602 7.5H879.102Z" fill="#53B43B"/>
<path d="M9.29151 5.13861L6.02781 8.85799L4.70852 7.35474C4.54639 7.17019 4.28376 7.17008 4.12164 7.35485C3.95945 7.53969 3.95945 7.83904 4.12164 8.02381L5.73442 9.86158C5.81547 9.95383 5.92164 10 6.02781 10C6.13399 10 6.24044 9.95384 6.32146 9.86143L6.32231 9.86017L9.87836 5.80746C10.0405 5.6228 10.0405 5.32323 9.87836 5.13857C9.71627 4.9538 9.45345 4.9538 9.29151 5.13861Z" fill="#53B43B" stroke="#53B43B" stroke-width="0.5"/>
<path d="M594.292 5.13861L591.028 8.85799L589.709 7.35474C589.546 7.17019 589.284 7.17008 589.122 7.35485C588.959 7.53969 588.959 7.83904 589.122 8.02381L590.734 9.86158C590.815 9.95384 590.922 10 591.028 10C591.134 10 591.24 9.95384 591.321 9.86143C591.322 9.86104 591.322 9.86064 591.322 9.86017L594.878 5.80746C595.041 5.6228 595.041 5.32323 594.878 5.13857C594.716 4.9538 594.453 4.9538 594.292 5.13861Z" fill="#53B43B" stroke="#53B43B" stroke-width="0.5"/>
<path fill-rule="evenodd" clip-rule="evenodd" d="M293 7.5C293 3.9159 295.916 1 299.5 1C303.084 1 306 3.9159 306 7.5C306 11.0841 303.084 14 299.5 14C295.916 14 293 11.0841 293 7.5ZM293.852 7.5C293.852 10.614 296.386 13.1475 299.5 13.1475C302.614 13.1475 305.147 10.614 305.147 7.5C305.147 4.38598 302.614 1.85251 299.5 1.85251C296.386 1.85251 293.852 4.38595 293.852 7.5Z" fill="#53B43B"/>
<path d="M305.147 7.5H304.897V7.5L305.147 7.5ZM299.5 0.75C295.778 0.75 292.75 3.77784 292.75 7.5H293.25C293.25 4.05396 296.054 1.25 299.5 1.25V0.75ZM306.25 7.5C306.25 3.77782 303.222 0.75 299.5 0.75V1.25C302.946 1.25 305.75 4.05398 305.75 7.5H306.25ZM299.5 14.25C303.222 14.25 306.25 11.2222 306.25 7.5H305.75C305.75 10.946 302.946 13.75 299.5 13.75V14.25ZM292.75 7.5C292.75 11.2222 295.778 14.25 299.5 14.25V13.75C296.054 13.75 293.25 10.946 293.25 7.5H292.75ZM299.5 12.8975C296.524 12.8975 294.102 10.476 294.102 7.5H293.602C293.602 10.7521 296.248 13.3975 299.5 13.3975V12.8975ZM304.897 7.5C304.897 10.4759 302.476 12.8975 299.5 12.8975V13.3975C302.752 13.3975 305.397 10.7521 305.397 7.5L304.897 7.5ZM299.5 2.10251C302.476 2.10251 304.897 4.52405 304.897 7.5H305.397C305.397 4.24791 302.752 1.60251 299.5 1.60251V2.10251ZM294.102 7.5C294.102 4.52401 296.524 2.10251 299.5 2.10251V1.60251C296.248 1.60251 293.602 4.24788 293.602 7.5H294.102Z" fill="#53B43B"/>
<path d="M301.292 5.13861L298.028 8.85799L296.709 7.35474C296.546 7.17019 296.284 7.17008 296.122 7.35485C295.959 7.53969 295.959 7.83904 296.122 8.02381L297.734 9.86158C297.815 9.95384 297.922 10 298.028 10C298.134 10 298.24 9.95384 298.321 9.86143C298.322 9.86104 298.322 9.86064 298.322 9.86017L301.878 5.80746C302.041 5.6228 302.041 5.32323 301.878 5.13857C301.716 4.9538 301.453 4.9538 301.292 5.13861Z" fill="#53B43B" stroke="#53B43B" stroke-width="0.5"/>
<path d="M886.292 5.13861L883.028 8.85799L881.709 7.35474C881.546 7.17019 881.284 7.17008 881.122 7.35485C880.959 7.53969 880.959 7.83904 881.122 8.02381L882.734 9.86158C882.815 9.95384 882.922 10 883.028 10C883.134 10 883.24 9.95384 883.321 9.86143C883.322 9.86104 883.322 9.86064 883.322 9.86017L886.878 5.80746C887.041 5.6228 887.041 5.32323 886.878 5.13857C886.716 4.9538 886.453 4.9538 886.292 5.13861Z" fill="#53B43B" stroke="#53B43B" stroke-width="0.5"/>
</svg>
